<svg width="54" height="54" viewBox="0 0 54 54" fill="none" xmlns="http://www.w3.org/2000/svg">
<rect x="0.5" y="0.5" width="53" height="53" fill="#2C2C2C" fill-opacity="0.5"/>
<rect x="0.5" y="0.5" width="53" height="53" stroke="#422726" stroke-linecap="round"/>
<path d="M40.9967 15.2991C40.188 14.4901 39.2278 13.8482 38.171 13.4103C37.1142 12.9725 35.9815 12.7471 34.8375 12.7471C33.6936 12.7471 32.5609 12.9725 31.504 13.4103C30.4472 13.8482 29.4871 14.4901 28.6784 15.2991L27 16.9775L25.3217 15.2991C23.6882 13.6656 21.4727 12.7479 19.1625 12.7479C16.8524 12.7479 14.6369 13.6656 13.0034 15.2991C11.3698 16.9326 10.4521 19.1482 10.4521 21.4583C10.4521 23.7684 11.3698 25.9839 13.0034 27.6175L27 41.6141L40.9967 27.6175C41.8058 26.8088 42.4476 25.8486 42.8855 24.7918C43.3234 23.735 43.5487 22.6022 43.5487 21.4583C43.5487 20.3144 43.3234 19.1816 42.8855 18.1248C42.4476 17.068 41.8058 16.1078 40.9967 15.2991Z" fill="white" stroke="#422726" stroke-linecap="round" stroke-linejoin="round"/>
</svg>
