<svg width="167" height="42" viewBox="0 0 167 42" fill="none" xmlns="http://www.w3.org/2000/svg">
<path d="M9.99 12.565H9.77V33.52C9.77 35.2067 10.4117 36.5817 11.695 37.645C13.015 38.7083 14.6833 39.24 16.7 39.24V41H0.64V39.24C2.65667 39.24 4.30667 38.7083 5.59 37.645C6.91 36.5817 7.57 35.2067 7.57 33.52V10.035C7.57 9.63167 7.53333 9.33833 7.46 9.155C7.38667 8.97166 7.22167 8.69666 6.965 8.33L4.765 5.03C4.39833 4.48 3.995 4.11333 3.555 3.93C3.115 3.71 2.47333 3.6 1.63 3.6H0.64V1.84H12.85L30.45 26.975V9.32C30.45 7.63333 29.79 6.25833 28.47 5.195C27.1867 4.13167 25.5367 3.6 23.52 3.6V1.84H39.58V3.6C37.5633 3.6 35.895 4.13167 34.575 5.195C33.2917 6.25833 32.65 7.63333 32.65 9.32V41.99H30.56L9.99 12.565ZM57.5397 41.99C54.7163 41.99 52.0396 41.0183 49.5096 39.075C47.0163 37.1317 45.018 34.5833 43.5146 31.43C42.0113 28.24 41.2596 24.9033 41.2596 21.42C41.2596 17.9367 42.0113 14.6183 43.5146 11.465C45.018 8.275 47.0163 5.70833 49.5096 3.765C52.0396 1.82167 54.7163 0.849999 57.5397 0.849999C60.363 0.849999 63.0213 1.82167 65.5147 3.765C68.0447 5.70833 70.0613 8.275 71.5647 11.465C73.068 14.6183 73.8197 17.9367 73.8197 21.42C73.8197 24.9033 73.068 28.24 71.5647 31.43C70.0613 34.5833 68.0447 37.1317 65.5147 39.075C63.0213 41.0183 60.363 41.99 57.5397 41.99ZM57.5397 40.23C59.7763 40.23 61.4813 39.4233 62.6547 37.81C63.8646 36.16 64.4696 33.4467 64.4696 29.67V13.17C64.4696 9.39333 63.8646 6.69833 62.6547 5.085C61.4813 3.435 59.7763 2.61 57.5397 2.61C55.303 2.61 53.5796 3.435 52.3696 5.085C51.1963 6.69833 50.6096 9.39333 50.6096 13.17V29.67C50.6096 33.4467 51.1963 36.16 52.3696 37.81C53.5796 39.4233 55.303 40.23 57.5397 40.23ZM83.6599 41.66C82.4133 41.66 81.3866 41.2567 80.5799 40.45C79.7733 39.6433 79.3699 38.6167 79.3699 37.37C79.3699 36.1233 79.7733 35.0967 80.5799 34.29C81.3866 33.4833 82.4133 33.08 83.6599 33.08C84.9066 33.08 85.9333 33.4833 86.7399 34.29C87.5466 35.0967 87.9499 36.1233 87.9499 37.37C87.9499 38.6167 87.5466 39.6433 86.7399 40.45C85.9333 41.2567 84.9066 41.66 83.6599 41.66ZM121.53 41.88C118.89 41.88 116.562 40.8533 114.545 38.8C112.565 36.7467 111.025 34.1433 109.925 30.99C108.862 27.8 108.33 24.61 108.33 21.42C108.33 18.23 108.862 15.0583 109.925 11.905C111.025 8.715 112.565 6.09333 114.545 4.04C116.562 1.98666 118.89 0.959998 121.53 0.959998C124.17 0.959998 126.48 1.98666 128.46 4.04C130.477 6.09333 132.017 8.715 133.08 11.905C134.18 15.0583 134.73 18.23 134.73 21.42C134.73 24.61 134.18 27.8 133.08 30.99C132.017 34.1433 130.477 36.7467 128.46 38.8C126.48 40.8533 124.17 41.88 121.53 41.88ZM121.53 40.12C122.887 40.12 123.858 39.3867 124.445 37.92C125.068 36.4167 125.38 34.8033 125.38 33.08V9.76C125.38 8.03667 125.068 6.44167 124.445 4.975C123.858 3.47166 122.887 2.72 121.53 2.72C120.173 2.72 119.183 3.47166 118.56 4.975C117.973 6.44167 117.68 8.03667 117.68 9.76V33.08C117.68 34.8033 117.973 36.4167 118.56 37.92C119.183 39.3867 120.173 40.12 121.53 40.12ZM152.609 41.88C150.556 41.88 148.539 41.4767 146.559 40.67C144.616 39.8633 143.021 38.7083 141.774 37.205C140.564 35.665 139.959 33.8683 139.959 31.815C139.959 29.505 140.638 27.5433 141.994 25.93C143.351 24.3167 144.891 23.1433 146.614 22.41V22.3C142.691 19.99 140.729 16.6717 140.729 12.345C140.729 9.925 141.353 7.85333 142.599 6.13C143.883 4.40666 145.496 3.12333 147.439 2.28C149.419 1.4 151.436 0.959998 153.489 0.959998C155.909 0.959998 157.926 1.41833 159.539 2.335C161.189 3.25167 162.381 4.38833 163.114 5.745C163.884 7.10166 164.269 8.42167 164.269 9.705C164.269 11.5383 163.683 13.2067 162.509 14.71C161.373 16.2133 160.016 17.3683 158.439 18.175V18.395L159.484 18.945C161.648 20.0083 163.353 21.4567 164.599 23.29C165.846 25.1233 166.469 26.975 166.469 28.845C166.469 31.2283 165.938 33.41 164.874 35.39C163.811 37.37 162.234 38.9467 160.144 40.12C158.054 41.2933 155.543 41.88 152.609 41.88ZM156.899 17.57C158.366 16.9833 159.521 15.9933 160.364 14.6C161.208 13.17 161.629 11.63 161.629 9.98C161.629 8.47667 161.244 7.175 160.474 6.075C159.704 4.975 158.714 4.15 157.504 3.6C156.331 3.01333 155.121 2.72 153.874 2.72C151.894 2.72 150.043 3.19666 148.319 4.15C146.633 5.10333 145.789 6.60666 145.789 8.66C145.789 10.1267 146.119 11.245 146.779 12.015C147.439 12.785 148.411 13.4817 149.694 14.105L156.899 17.57ZM154.094 40.12C155.708 40.12 157.138 39.8267 158.384 39.24C159.631 38.6167 160.584 37.81 161.244 36.82C161.941 35.83 162.289 34.7667 162.289 33.63C162.289 32.1633 161.831 30.9533 160.914 30C159.998 29.0467 158.806 28.2033 157.339 27.47L148.209 22.96C146.743 23.7667 145.624 24.7383 144.854 25.875C144.084 26.975 143.699 28.6617 143.699 30.935C143.699 33.2817 144.286 35.1517 145.459 36.545C146.669 37.9017 148.063 38.8367 149.639 39.35C151.253 39.8633 152.738 40.12 154.094 40.12Z" fill="#323232"/>
</svg>
