<svg width="89" height="84" viewBox="0 0 89 84" fill="none" xmlns="http://www.w3.org/2000/svg">
<rect width="89" height="84" fill="white"/>
<path d="M20.125 27L28.25 17H60.75L68.875 27M20.125 27V62C20.125 63.3261 20.6957 64.5979 21.7115 65.5355C22.7273 66.4732 24.1051 67 25.5417 67H63.4583C64.8949 67 66.2727 66.4732 67.2885 65.5355C68.3043 64.5979 68.875 63.3261 68.875 62V27M20.125 27H68.875M55.3333 37C55.3333 39.6522 54.192 42.1957 52.1603 44.0711C50.1287 45.9464 47.3732 47 44.5 47C41.6268 47 38.8713 45.9464 36.8397 44.0711C34.808 42.1957 33.6667 39.6522 33.6667 37" stroke="black" stroke-width="2" stroke-linecap="round" stroke-linejoin="round"/>
</svg>
