<svg width="36" height="31" viewBox="0 0 36 31" fill="none" xmlns="http://www.w3.org/2000/svg">
<path d="M31.9967 3.29913C31.188 2.49005 30.2278 1.84823 29.171 1.41034C28.1142 0.972453 26.9815 0.74707 25.8375 0.74707C24.6936 0.74707 23.5609 0.972453 22.504 1.41034C21.4472 1.84823 20.4871 2.49005 19.6784 3.29913L18 4.97746L16.3217 3.29913C14.6882 1.66562 12.4727 0.747917 10.1625 0.747917C7.85239 0.747917 5.63687 1.66562 4.00336 3.29913C2.36985 4.93264 1.45215 7.14816 1.45215 9.45829C1.45215 11.7684 2.36985 13.9839 4.00336 15.6175L18 29.6141L31.9967 15.6175C32.8058 14.8088 33.4476 13.8486 33.8855 12.7918C34.3234 11.735 34.5487 10.6022 34.5487 9.45829C34.5487 8.31435 34.3234 7.18162 33.8855 6.12481C33.4476 5.068 32.8058 4.10782 31.9967 3.29913Z" fill="white" stroke="#422726" stroke-linecap="round" stroke-linejoin="round"/>
</svg>
