<svg width="831" height="704" viewBox="0 0 831 704" fill="none" xmlns="http://www.w3.org/2000/svg">
<g clip-path="url(#clip0_225_355)">
<path d="M520.15 396.9C518.017 396.9 516.25 396.267 514.85 395C513.483 393.733 512.8 391.917 512.8 389.55C512.8 387.083 513.517 384.867 514.95 382.9C516.417 380.9 518.083 379.283 519.95 378.05C521.85 376.817 523.55 375.95 525.05 375.45L527.95 374.4C528.15 372.2 528.667 370.067 529.5 368C530.367 365.933 531.5 364.233 532.9 362.9C534.3 361.567 535.9 360.9 537.7 360.9C539.167 360.9 540.2 361.383 540.8 362.35C541.433 363.283 541.75 364.3 541.75 365.4C541.75 367.533 540.983 369.217 539.45 370.45C537.95 371.683 536.267 372.617 534.4 373.25L531.45 374.3V387.55L540.2 375.95C540.767 375.183 541.4 374.517 542.1 373.95C542.833 373.383 543.667 373.1 544.6 373.1C545.633 373.1 546.417 373.433 546.95 374.1C547.517 374.733 547.8 375.533 547.8 376.5C547.8 377.1 547.617 377.7 547.25 378.3C546.883 378.867 546.3 379.15 545.5 379.15C545.1 379.15 544.733 379.05 544.4 378.85C544.067 378.617 543.9 378.217 543.9 377.65C543.9 377.117 544.117 376.633 544.55 376.2C544.917 375.833 545.1 375.5 545.1 375.2C545.1 375 545 374.817 544.8 374.65C544.633 374.483 544.4 374.4 544.1 374.4C543.633 374.4 543.217 374.567 542.85 374.9C542.483 375.233 541.967 375.8 541.3 376.6L531.5 389C531.5 390.967 531.65 392.533 531.95 393.7C532.25 394.833 533 395.4 534.2 395.4C535.167 395.4 536.25 394.817 537.45 393.65C538.683 392.45 539.817 391.1 540.85 389.6C541.917 388.1 542.7 386.867 543.2 385.9L544.1 386.4C542.9 388.8 541.383 391.15 539.55 393.45C537.75 395.75 535.8 396.9 533.7 396.9C532.033 396.9 530.8 396.5 530 395.7C529.233 394.867 528.683 393.767 528.35 392.4C527.083 393.733 525.817 394.817 524.55 395.65C523.283 396.483 521.817 396.9 520.15 396.9ZM533.9 372.3C535.467 371.8 536.867 371.017 538.1 369.95C539.333 368.85 539.95 367.35 539.95 365.45C539.95 364.75 539.767 364.067 539.4 363.4C539.067 362.733 538.467 362.4 537.6 362.4C536.733 362.4 535.817 362.767 534.85 363.5C533.917 364.2 533.117 365.367 532.45 367C531.783 368.6 531.45 370.667 531.45 373.2L533.9 372.3ZM521.25 395.4C522.583 395.4 523.767 395.033 524.8 394.3C525.833 393.533 526.917 392.517 528.05 391.25C527.917 390.85 527.85 390.25 527.85 389.45V375.7L526.05 376.35C523.383 377.317 521.3 379.017 519.8 381.45C518.333 383.85 517.6 386.633 517.6 389.8C517.6 391.633 517.917 393.033 518.55 394C519.183 394.933 520.083 395.4 521.25 395.4Z" fill="black"/>
<path d="M192.72 276.08H197.04C198.12 276.08 198.66 275.54 198.66 274.46V238.82C198.66 238.26 198.52 237.86 198.24 237.62C198 237.34 197.6 237.2 197.04 237.2H192.72V235.28H226.2L226.44 250.28H224.94C224.94 249.48 224.76 248.12 224.4 246.2C224.08 244.28 223.42 242.56 222.42 241.04C220.74 238.48 218.38 237.2 215.34 237.2H205.8C205.24 237.2 204.82 237.34 204.54 237.62C204.3 237.86 204.18 238.26 204.18 238.82V254.96H208.8C210.84 254.96 212.3 253.88 213.18 251.72C214.1 249.52 214.56 247.22 214.56 244.82H216.12V267.02H214.56C214.56 264.62 214.1 262.34 213.18 260.18C212.3 257.98 210.84 256.88 208.8 256.88H204.18V274.1C204.18 274.7 204.3 275.18 204.54 275.54C204.82 275.9 205.24 276.08 205.8 276.08H211.08V278H192.72V276.08ZM239.431 278.72C237.231 278.72 235.211 278.08 233.371 276.8C231.531 275.48 230.071 273.72 228.991 271.52C227.951 269.32 227.431 266.92 227.431 264.32C227.431 261.72 227.951 259.32 228.991 257.12C230.071 254.92 231.531 253.18 233.371 251.9C235.211 250.58 237.231 249.92 239.431 249.92C241.631 249.92 243.651 250.58 245.491 251.9C247.331 253.18 248.771 254.92 249.811 257.12C250.891 259.32 251.431 261.72 251.431 264.32C251.431 266.92 250.891 269.32 249.811 271.52C248.771 273.72 247.331 275.48 245.491 276.8C243.651 278.08 241.631 278.72 239.431 278.72ZM239.431 277.28C241.831 277.28 243.551 276.16 244.591 273.92C245.631 271.64 246.151 268.44 246.151 264.32C246.151 260.2 245.631 257.02 244.591 254.78C243.551 252.5 241.831 251.36 239.431 251.36C237.031 251.36 235.311 252.5 234.271 254.78C233.231 257.02 232.711 260.2 232.711 264.32C232.711 268.44 233.231 271.64 234.271 273.92C235.311 276.16 237.031 277.28 239.431 277.28ZM255.937 276.56H258.457C258.937 276.56 259.277 276.46 259.477 276.26C259.677 276.06 259.777 275.72 259.777 275.24V253.4C259.777 252.92 259.677 252.58 259.477 252.38C259.277 252.18 258.937 252.08 258.457 252.08H255.937V250.64H264.097V256.64L264.337 256.7C265.177 254.62 266.257 252.98 267.577 251.78C268.937 250.54 270.377 249.92 271.897 249.92C273.417 249.92 274.657 250.36 275.617 251.24C276.577 252.12 277.057 253.32 277.057 254.84C277.057 255.72 276.737 256.58 276.097 257.42C275.497 258.26 274.717 258.68 273.757 258.68C272.997 258.68 272.357 258.48 271.837 258.08C271.317 257.68 271.057 257.12 271.057 256.4C271.057 255.56 271.457 254.84 272.257 254.24C272.617 254 272.877 253.78 273.037 253.58C273.237 253.38 273.337 253.12 273.337 252.8C273.337 252.44 273.157 252.16 272.797 251.96C272.477 251.72 272.017 251.6 271.417 251.6C270.177 251.6 268.977 252.2 267.817 253.4C266.697 254.6 265.797 256.16 265.117 258.08C264.437 260 264.097 262 264.097 264.08V275.24C264.097 275.72 264.197 276.06 264.397 276.26C264.597 276.46 264.937 276.56 265.417 276.56H267.937V278H255.937V276.56ZM297.482 276.08H301.802C302.882 276.08 303.422 275.54 303.422 274.46V238.82C303.422 237.74 302.882 237.2 301.802 237.2H297.482V235.28H314.882V237.2H310.562C309.482 237.2 308.942 237.74 308.942 238.82V254.6H327.062V238.82C327.062 237.74 326.522 237.2 325.442 237.2H321.122V235.28H338.522V237.2H334.202C333.122 237.2 332.582 237.74 332.582 238.82V274.46C332.582 275.54 333.122 276.08 334.202 276.08H338.522V278H321.122V276.08H325.442C326.522 276.08 327.062 275.54 327.062 274.46V256.52H308.942V274.46C308.942 275.54 309.482 276.08 310.562 276.08H314.882V278H297.482V276.08ZM355.627 278.72C351.907 278.72 348.907 277.46 346.627 274.94C344.387 272.42 343.267 268.92 343.267 264.44C343.267 261.88 343.767 259.5 344.767 257.3C345.767 255.06 347.147 253.28 348.907 251.96C350.707 250.6 352.707 249.92 354.907 249.92C357.347 249.92 359.347 250.58 360.907 251.9C362.467 253.22 363.587 254.9 364.267 256.94C364.987 258.94 365.347 261 365.347 263.12C365.347 263.56 365.207 263.86 364.927 264.02C364.647 264.14 364.167 264.2 363.487 264.2H348.547C348.547 268.2 349.107 271.38 350.227 273.74C351.387 276.1 353.267 277.28 355.867 277.28C357.707 277.28 359.427 276.58 361.027 275.18C362.667 273.78 363.707 271.6 364.147 268.64H365.587C365.347 271.56 364.327 273.98 362.527 275.9C360.767 277.78 358.467 278.72 355.627 278.72ZM360.187 262.76C360.187 259.56 359.767 256.86 358.927 254.66C358.087 252.46 356.707 251.36 354.787 251.36C352.747 251.36 351.187 252.48 350.107 254.72C349.067 256.92 348.547 259.6 348.547 262.76H360.187ZM369.605 276.56H372.125C372.605 276.56 372.945 276.46 373.145 276.26C373.345 276.06 373.445 275.72 373.445 275.24V253.4C373.445 252.92 373.345 252.58 373.145 252.38C372.945 252.18 372.605 252.08 372.125 252.08H369.605V250.64H377.765V256.64L378.005 256.7C378.845 254.62 379.925 252.98 381.245 251.78C382.605 250.54 384.045 249.92 385.565 249.92C387.085 249.92 388.325 250.36 389.285 251.24C390.245 252.12 390.725 253.32 390.725 254.84C390.725 255.72 390.405 256.58 389.765 257.42C389.165 258.26 388.385 258.68 387.425 258.68C386.665 258.68 386.025 258.48 385.505 258.08C384.985 257.68 384.725 257.12 384.725 256.4C384.725 255.56 385.125 254.84 385.925 254.24C386.285 254 386.545 253.78 386.705 253.58C386.905 253.38 387.005 253.12 387.005 252.8C387.005 252.44 386.825 252.16 386.465 251.96C386.145 251.72 385.685 251.6 385.085 251.6C383.845 251.6 382.645 252.2 381.485 253.4C380.365 254.6 379.465 256.16 378.785 258.08C378.105 260 377.765 262 377.765 264.08V275.24C377.765 275.72 377.865 276.06 378.065 276.26C378.265 276.46 378.605 276.56 379.085 276.56H381.605V278H369.605V276.56Z" fill="#FFCCE2"/>
<path d="M305.815 366.08H310.135C311.215 366.08 311.755 365.54 311.755 364.46V328.82C311.755 328.26 311.615 327.86 311.335 327.62C311.095 327.34 310.695 327.2 310.135 327.2H305.815V325.28H339.295L339.535 340.28H338.035C338.035 339.48 337.855 338.12 337.495 336.2C337.175 334.28 336.515 332.56 335.515 331.04C333.835 328.48 331.475 327.2 328.435 327.2H318.895C318.335 327.2 317.915 327.34 317.635 327.62C317.395 327.86 317.275 328.26 317.275 328.82V344.96H321.895C323.935 344.96 325.395 343.88 326.275 341.72C327.195 339.52 327.655 337.22 327.655 334.82H329.215V357.02H327.655C327.655 354.62 327.195 352.34 326.275 350.18C325.395 347.98 323.935 346.88 321.895 346.88H317.275V364.1C317.275 364.7 317.395 365.18 317.635 365.54C317.915 365.9 318.335 366.08 318.895 366.08H324.175V368H305.815V366.08ZM352.526 368.72C350.326 368.72 348.306 368.08 346.466 366.8C344.626 365.48 343.166 363.72 342.086 361.52C341.046 359.32 340.526 356.92 340.526 354.32C340.526 351.72 341.046 349.32 342.086 347.12C343.166 344.92 344.626 343.18 346.466 341.9C348.306 340.58 350.326 339.92 352.526 339.92C354.726 339.92 356.746 340.58 358.586 341.9C360.426 343.18 361.866 344.92 362.906 347.12C363.986 349.32 364.526 351.72 364.526 354.32C364.526 356.92 363.986 359.32 362.906 361.52C361.866 363.72 360.426 365.48 358.586 366.8C356.746 368.08 354.726 368.72 352.526 368.72ZM352.526 367.28C354.926 367.28 356.646 366.16 357.686 363.92C358.726 361.64 359.246 358.44 359.246 354.32C359.246 350.2 358.726 347.02 357.686 344.78C356.646 342.5 354.926 341.36 352.526 341.36C350.126 341.36 348.406 342.5 347.366 344.78C346.326 347.02 345.806 350.2 345.806 354.32C345.806 358.44 346.326 361.64 347.366 363.92C348.406 366.16 350.126 367.28 352.526 367.28ZM369.031 366.56H371.551C372.031 366.56 372.371 366.46 372.571 366.26C372.771 366.06 372.871 365.72 372.871 365.24V343.4C372.871 342.92 372.771 342.58 372.571 342.38C372.371 342.18 372.031 342.08 371.551 342.08H369.031V340.64H377.191V346.64L377.431 346.7C378.271 344.62 379.351 342.98 380.671 341.78C382.031 340.54 383.471 339.92 384.991 339.92C386.511 339.92 387.751 340.36 388.711 341.24C389.671 342.12 390.151 343.32 390.151 344.84C390.151 345.72 389.831 346.58 389.191 347.42C388.591 348.26 387.811 348.68 386.851 348.68C386.091 348.68 385.451 348.48 384.931 348.08C384.411 347.68 384.151 347.12 384.151 346.4C384.151 345.56 384.551 344.84 385.351 344.24C385.711 344 385.971 343.78 386.131 343.58C386.331 343.38 386.431 343.12 386.431 342.8C386.431 342.44 386.251 342.16 385.891 341.96C385.571 341.72 385.111 341.6 384.511 341.6C383.271 341.6 382.071 342.2 380.911 343.4C379.791 344.6 378.891 346.16 378.211 348.08C377.531 350 377.191 352 377.191 354.08V365.24C377.191 365.72 377.291 366.06 377.491 366.26C377.691 366.46 378.031 366.56 378.511 366.56H381.031V368H369.031V366.56ZM410.577 366.08H414.897C415.977 366.08 416.517 365.54 416.517 364.46V328.82C416.517 327.74 415.977 327.2 414.897 327.2H410.577V325.28H427.977V327.2H423.657C422.577 327.2 422.037 327.74 422.037 328.82V344.6H440.157V328.82C440.157 327.74 439.617 327.2 438.537 327.2H434.217V325.28H451.617V327.2H447.297C446.217 327.2 445.677 327.74 445.677 328.82V364.46C445.677 365.54 446.217 366.08 447.297 366.08H451.617V368H434.217V366.08H438.537C439.617 366.08 440.157 365.54 440.157 364.46V346.52H422.037V364.46C422.037 365.54 422.577 366.08 423.657 366.08H427.977V368H410.577V366.08ZM461.402 333.2C460.522 333.2 459.782 332.9 459.182 332.3C458.582 331.7 458.282 330.96 458.282 330.08C458.282 329.16 458.582 328.42 459.182 327.86C459.782 327.26 460.522 326.96 461.402 326.96C462.322 326.96 463.062 327.26 463.622 327.86C464.222 328.42 464.522 329.16 464.522 330.08C464.522 330.96 464.222 331.7 463.622 332.3C463.062 332.9 462.322 333.2 461.402 333.2ZM455.762 366.56H458.282C458.762 366.56 459.102 366.46 459.302 366.26C459.502 366.06 459.602 365.72 459.602 365.24V343.4C459.602 342.92 459.502 342.58 459.302 342.38C459.102 342.18 458.762 342.08 458.282 342.08H455.762V340.64H463.922V365.24C463.922 365.72 464.022 366.06 464.222 366.26C464.422 366.46 464.762 366.56 465.242 366.56H467.762V368H455.762V366.56ZM471.274 366.56H473.794C474.274 366.56 474.614 366.46 474.814 366.26C475.014 366.06 475.114 365.72 475.114 365.24V343.4C475.114 342.92 475.014 342.58 474.814 342.38C474.614 342.18 474.274 342.08 473.794 342.08H471.274V340.64H479.434V345.44L479.674 345.5C480.514 343.66 481.594 342.28 482.914 341.36C484.274 340.4 485.714 339.92 487.234 339.92C489.594 339.92 491.334 340.56 492.454 341.84C493.614 343.12 494.394 344.64 494.794 346.4H495.034C495.514 344.8 496.454 343.32 497.854 341.96C499.294 340.6 500.954 339.92 502.834 339.92C505.754 339.92 507.814 340.9 509.014 342.86C510.254 344.82 510.874 347.12 510.874 349.76V365.24C510.874 365.72 510.974 366.06 511.174 366.26C511.374 366.46 511.714 366.56 512.194 366.56H514.714V368H502.714V366.56H505.234C505.714 366.56 506.054 366.46 506.254 366.26C506.454 366.06 506.554 365.72 506.554 365.24V347.66C506.554 346.06 506.174 344.66 505.414 343.46C504.654 342.22 503.554 341.6 502.114 341.6C500.914 341.6 499.774 342.08 498.694 343.04C497.654 343.96 496.794 345.24 496.114 346.88C495.474 348.52 495.154 350.36 495.154 352.4V365.24C495.154 365.72 495.254 366.06 495.454 366.26C495.654 366.46 495.994 366.56 496.474 366.56H498.994V368H486.994V366.56H489.514C489.994 366.56 490.334 366.46 490.534 366.26C490.734 366.06 490.834 365.72 490.834 365.24V347.66C490.834 346.06 490.454 344.66 489.694 343.46C488.934 342.22 487.834 341.6 486.394 341.6C485.194 341.6 484.054 342.08 482.974 343.04C481.934 343.96 481.074 345.24 480.394 346.88C479.754 348.52 479.434 350.36 479.434 352.4V365.24C479.434 365.72 479.534 366.06 479.734 366.26C479.934 366.46 480.274 366.56 480.754 366.56H483.274V368H471.274V366.56ZM418.91 456.08H423.23C424.31 456.08 424.85 455.54 424.85 454.46V418.82C424.85 418.26 424.71 417.86 424.43 417.62C424.19 417.34 423.79 417.2 423.23 417.2H418.91V415.28H452.39L452.63 430.28H451.13C451.13 429.48 450.95 428.12 450.59 426.2C450.27 424.28 449.61 422.56 448.61 421.04C446.93 418.48 444.57 417.2 441.53 417.2H431.99C431.43 417.2 431.01 417.34 430.73 417.62C430.49 417.86 430.37 418.26 430.37 418.82V434.96H434.99C437.03 434.96 438.49 433.88 439.37 431.72C440.29 429.52 440.75 427.22 440.75 424.82H442.31V447.02H440.75C440.75 444.62 440.29 442.34 439.37 440.18C438.49 437.98 437.03 436.88 434.99 436.88H430.37V454.1C430.37 454.7 430.49 455.18 430.73 455.54C431.01 455.9 431.43 456.08 431.99 456.08H437.27V458H418.91V456.08ZM465.621 458.72C463.421 458.72 461.401 458.08 459.561 456.8C457.721 455.48 456.261 453.72 455.181 451.52C454.141 449.32 453.621 446.92 453.621 444.32C453.621 441.72 454.141 439.32 455.181 437.12C456.261 434.92 457.721 433.18 459.561 431.9C461.401 430.58 463.421 429.92 465.621 429.92C467.821 429.92 469.841 430.58 471.681 431.9C473.521 433.18 474.961 434.92 476.001 437.12C477.081 439.32 477.621 441.72 477.621 444.32C477.621 446.92 477.081 449.32 476.001 451.52C474.961 453.72 473.521 455.48 471.681 456.8C469.841 458.08 467.821 458.72 465.621 458.72ZM465.621 457.28C468.021 457.28 469.741 456.16 470.781 453.92C471.821 451.64 472.341 448.44 472.341 444.32C472.341 440.2 471.821 437.02 470.781 434.78C469.741 432.5 468.021 431.36 465.621 431.36C463.221 431.36 461.501 432.5 460.461 434.78C459.421 437.02 458.901 440.2 458.901 444.32C458.901 448.44 459.421 451.64 460.461 453.92C461.501 456.16 463.221 457.28 465.621 457.28ZM482.126 456.56H484.646C485.126 456.56 485.466 456.46 485.666 456.26C485.866 456.06 485.966 455.72 485.966 455.24V433.4C485.966 432.92 485.866 432.58 485.666 432.38C485.466 432.18 485.126 432.08 484.646 432.08H482.126V430.64H490.286V436.64L490.526 436.7C491.366 434.62 492.446 432.98 493.766 431.78C495.126 430.54 496.566 429.92 498.086 429.92C499.606 429.92 500.846 430.36 501.806 431.24C502.766 432.12 503.246 433.32 503.246 434.84C503.246 435.72 502.926 436.58 502.286 437.42C501.686 438.26 500.906 438.68 499.946 438.68C499.186 438.68 498.546 438.48 498.026 438.08C497.506 437.68 497.246 437.12 497.246 436.4C497.246 435.56 497.646 434.84 498.446 434.24C498.806 434 499.066 433.78 499.226 433.58C499.426 433.38 499.526 433.12 499.526 432.8C499.526 432.44 499.346 432.16 498.986 431.96C498.666 431.72 498.206 431.6 497.606 431.6C496.366 431.6 495.166 432.2 494.006 433.4C492.886 434.6 491.986 436.16 491.306 438.08C490.626 440 490.286 442 490.286 444.08V455.24C490.286 455.72 490.386 456.06 490.586 456.26C490.786 456.46 491.126 456.56 491.606 456.56H494.126V458H482.126V456.56ZM532.312 458.72C530.512 458.72 529.012 458.08 527.812 456.8C526.652 455.52 526.072 453.78 526.072 451.58V432.32H521.632V430.64H522.952C524.752 430.64 526.152 429.68 527.152 427.76C528.192 425.8 528.712 423.64 528.712 421.28V419.12H530.392V430.64H537.832V432.32H530.392V451.88C530.392 453.08 530.632 454.08 531.112 454.88C531.592 455.68 532.412 456.08 533.572 456.08C536.412 456.08 537.832 453.68 537.832 448.88H538.912C538.912 451.56 538.512 453.88 537.712 455.84C536.952 457.76 535.152 458.72 532.312 458.72ZM541.949 456.56H545.309C545.789 456.56 546.129 456.46 546.329 456.26C546.529 456.06 546.629 455.72 546.629 455.24V418.04C546.629 417.56 546.529 417.22 546.329 417.02C546.129 416.82 545.789 416.72 545.309 416.72H541.949V415.28H550.949V435.56L551.189 435.62C552.109 433.7 553.249 432.28 554.609 431.36C555.969 430.4 557.469 429.92 559.109 429.92C562.029 429.92 564.089 430.82 565.289 432.62C566.529 434.42 567.149 436.58 567.149 439.1V455.24C567.149 455.72 567.249 456.06 567.449 456.26C567.649 456.46 567.989 456.56 568.469 456.56H570.989V458H558.989V456.56H561.509C561.989 456.56 562.329 456.46 562.529 456.26C562.729 456.06 562.829 455.72 562.829 455.24V437.96C562.829 436.2 562.469 434.7 561.749 433.46C561.069 432.22 559.889 431.6 558.209 431.6C556.809 431.6 555.549 432.1 554.429 433.1C553.349 434.06 552.489 435.4 551.849 437.12C551.249 438.8 550.949 440.68 550.949 442.76V455.24C550.949 455.72 551.049 456.06 551.249 456.26C551.449 456.46 551.789 456.56 552.269 456.56H554.789V458H541.949V456.56ZM587.485 458.72C583.765 458.72 580.765 457.46 578.485 454.94C576.245 452.42 575.125 448.92 575.125 444.44C575.125 441.88 575.625 439.5 576.625 437.3C577.625 435.06 579.005 433.28 580.765 431.96C582.565 430.6 584.565 429.92 586.765 429.92C589.205 429.92 591.205 430.58 592.765 431.9C594.325 433.22 595.445 434.9 596.125 436.94C596.845 438.94 597.205 441 597.205 443.12C597.205 443.56 597.065 443.86 596.785 444.02C596.505 444.14 596.025 444.2 595.345 444.2H580.405C580.405 448.2 580.965 451.38 582.085 453.74C583.245 456.1 585.125 457.28 587.725 457.28C589.565 457.28 591.285 456.58 592.885 455.18C594.525 453.78 595.565 451.6 596.005 448.64H597.445C597.205 451.56 596.185 453.98 594.385 455.9C592.625 457.78 590.325 458.72 587.485 458.72ZM592.045 442.76C592.045 439.56 591.625 436.86 590.785 434.66C589.945 432.46 588.565 431.36 586.645 431.36C584.605 431.36 583.045 432.48 581.965 434.72C580.925 436.92 580.405 439.6 580.405 442.76H592.045ZM601.463 456.56H603.983C604.463 456.56 604.803 456.46 605.003 456.26C605.203 456.06 605.303 455.72 605.303 455.24V433.4C605.303 432.92 605.203 432.58 605.003 432.38C604.803 432.18 604.463 432.08 603.983 432.08H601.463V430.64H609.623V435.44L609.863 435.5C610.703 433.66 611.783 432.28 613.103 431.36C614.463 430.4 615.903 429.92 617.423 429.92C619.783 429.92 621.523 430.56 622.643 431.84C623.803 433.12 624.583 434.64 624.983 436.4H625.223C625.703 434.8 626.643 433.32 628.043 431.96C629.483 430.6 631.143 429.92 633.023 429.92C635.943 429.92 638.003 430.9 639.203 432.86C640.443 434.82 641.063 437.12 641.063 439.76V455.24C641.063 455.72 641.163 456.06 641.363 456.26C641.563 456.46 641.903 456.56 642.383 456.56H644.903V458H632.903V456.56H635.423C635.903 456.56 636.243 456.46 636.443 456.26C636.643 456.06 636.743 455.72 636.743 455.24V437.66C636.743 436.06 636.363 434.66 635.603 433.46C634.843 432.22 633.743 431.6 632.303 431.6C631.103 431.6 629.963 432.08 628.883 433.04C627.843 433.96 626.983 435.24 626.303 436.88C625.663 438.52 625.343 440.36 625.343 442.4V455.24C625.343 455.72 625.443 456.06 625.643 456.26C625.843 456.46 626.183 456.56 626.663 456.56H629.183V458H617.183V456.56H619.703C620.183 456.56 620.523 456.46 620.723 456.26C620.923 456.06 621.023 455.72 621.023 455.24V437.66C621.023 436.06 620.643 434.66 619.883 433.46C619.123 432.22 618.023 431.6 616.583 431.6C615.383 431.6 614.243 432.08 613.163 433.04C612.123 433.96 611.263 435.24 610.583 436.88C609.943 438.52 609.623 440.36 609.623 442.4V455.24C609.623 455.72 609.723 456.06 609.923 456.26C610.123 456.46 610.463 456.56 610.943 456.56H613.463V458H601.463V456.56Z" fill="black"/>
<path d="M393.15 303.9C391.017 303.9 389.25 303.267 387.85 302C386.483 300.733 385.8 298.917 385.8 296.55C385.8 294.083 386.517 291.867 387.95 289.9C389.417 287.9 391.083 286.283 392.95 285.05C394.85 283.817 396.55 282.95 398.05 282.45L400.95 281.4C401.15 279.2 401.667 277.067 402.5 275C403.367 272.933 404.5 271.233 405.9 269.9C407.3 268.567 408.9 267.9 410.7 267.9C412.167 267.9 413.2 268.383 413.8 269.35C414.433 270.283 414.75 271.3 414.75 272.4C414.75 274.533 413.983 276.217 412.45 277.45C410.95 278.683 409.267 279.617 407.4 280.25L404.45 281.3V294.55L413.2 282.95C413.767 282.183 414.4 281.517 415.1 280.95C415.833 280.383 416.667 280.1 417.6 280.1C418.633 280.1 419.417 280.433 419.95 281.1C420.517 281.733 420.8 282.533 420.8 283.5C420.8 284.1 420.617 284.7 420.25 285.3C419.883 285.867 419.3 286.15 418.5 286.15C418.1 286.15 417.733 286.05 417.4 285.85C417.067 285.617 416.9 285.217 416.9 284.65C416.9 284.117 417.117 283.633 417.55 283.2C417.917 282.833 418.1 282.5 418.1 282.2C418.1 282 418 281.817 417.8 281.65C417.633 281.483 417.4 281.4 417.1 281.4C416.633 281.4 416.217 281.567 415.85 281.9C415.483 282.233 414.967 282.8 414.3 283.6L404.5 296C404.5 297.967 404.65 299.533 404.95 300.7C405.25 301.833 406 302.4 407.2 302.4C408.167 302.4 409.25 301.817 410.45 300.65C411.683 299.45 412.817 298.1 413.85 296.6C414.917 295.1 415.7 293.867 416.2 292.9L417.1 293.4C415.9 295.8 414.383 298.15 412.55 300.45C410.75 302.75 408.8 303.9 406.7 303.9C405.033 303.9 403.8 303.5 403 302.7C402.233 301.867 401.683 300.767 401.35 299.4C400.083 300.733 398.817 301.817 397.55 302.65C396.283 303.483 394.817 303.9 393.15 303.9ZM406.9 279.3C408.467 278.8 409.867 278.017 411.1 276.95C412.333 275.85 412.95 274.35 412.95 272.45C412.95 271.75 412.767 271.067 412.4 270.4C412.067 269.733 411.467 269.4 410.6 269.4C409.733 269.4 408.817 269.767 407.85 270.5C406.917 271.2 406.117 272.367 405.45 274C404.783 275.6 404.45 277.667 404.45 280.2L406.9 279.3ZM394.25 302.4C395.583 302.4 396.767 302.033 397.8 301.3C398.833 300.533 399.917 299.517 401.05 298.25C400.917 297.85 400.85 297.25 400.85 296.45V282.7L399.05 283.35C396.383 284.317 394.3 286.017 392.8 288.45C391.333 290.85 390.6 293.633 390.6 296.8C390.6 298.633 390.917 300.033 391.55 301C392.183 301.933 393.083 302.4 394.25 302.4Z" fill="#FFCCE1"/>
</g>
<defs>
<clipPath id="clip0_225_355">
<rect width="831" height="704" fill="white"/>
</clipPath>
</defs>
</svg>
