<svg width="503" height="315" viewBox="0 0 503 315" fill="none" xmlns="http://www.w3.org/2000/svg">
<g clip-path="url(#clip0_225_355)">
<path d="M354.15 199.9C352.017 199.9 350.25 199.267 348.85 198C347.483 196.733 346.8 194.917 346.8 192.55C346.8 190.083 347.517 187.867 348.95 185.9C350.417 183.9 352.083 182.283 353.95 181.05C355.85 179.817 357.55 178.95 359.05 178.45L361.95 177.4C362.15 175.2 362.667 173.067 363.5 171C364.367 168.933 365.5 167.233 366.9 165.9C368.3 164.567 369.9 163.9 371.7 163.9C373.167 163.9 374.2 164.383 374.8 165.35C375.433 166.283 375.75 167.3 375.75 168.4C375.75 170.533 374.983 172.217 373.45 173.45C371.95 174.683 370.267 175.617 368.4 176.25L365.45 177.3V190.55L374.2 178.95C374.767 178.183 375.4 177.517 376.1 176.95C376.833 176.383 377.667 176.1 378.6 176.1C379.633 176.1 380.417 176.433 380.95 177.1C381.517 177.733 381.8 178.533 381.8 179.5C381.8 180.1 381.617 180.7 381.25 181.3C380.883 181.867 380.3 182.15 379.5 182.15C379.1 182.15 378.733 182.05 378.4 181.85C378.067 181.617 377.9 181.217 377.9 180.65C377.9 180.117 378.117 179.633 378.55 179.2C378.917 178.833 379.1 178.5 379.1 178.2C379.1 178 379 177.817 378.8 177.65C378.633 177.483 378.4 177.4 378.1 177.4C377.633 177.4 377.217 177.567 376.85 177.9C376.483 178.233 375.967 178.8 375.3 179.6L365.5 192C365.5 193.967 365.65 195.533 365.95 196.7C366.25 197.833 367 198.4 368.2 198.4C369.167 198.4 370.25 197.817 371.45 196.65C372.683 195.45 373.817 194.1 374.85 192.6C375.917 191.1 376.7 189.867 377.2 188.9L378.1 189.4C376.9 191.8 375.383 194.15 373.55 196.45C371.75 198.75 369.8 199.9 367.7 199.9C366.033 199.9 364.8 199.5 364 198.7C363.233 197.867 362.683 196.767 362.35 195.4C361.083 196.733 359.817 197.817 358.55 198.65C357.283 199.483 355.817 199.9 354.15 199.9ZM367.9 175.3C369.467 174.8 370.867 174.017 372.1 172.95C373.333 171.85 373.95 170.35 373.95 168.45C373.95 167.75 373.767 167.067 373.4 166.4C373.067 165.733 372.467 165.4 371.6 165.4C370.733 165.4 369.817 165.767 368.85 166.5C367.917 167.2 367.117 168.367 366.45 170C365.783 171.6 365.45 173.667 365.45 176.2L367.9 175.3ZM355.25 198.4C356.583 198.4 357.767 198.033 358.8 197.3C359.833 196.533 360.917 195.517 362.05 194.25C361.917 193.85 361.85 193.25 361.85 192.45V178.7L360.05 179.35C357.383 180.317 355.3 182.017 353.8 184.45C352.333 186.85 351.6 189.633 351.6 192.8C351.6 194.633 351.917 196.033 352.55 197C353.183 197.933 354.083 198.4 355.25 198.4Z" fill="#FFCCE1"/>
<path d="M22.72 78.08H27.04C28.12 78.08 28.66 77.54 28.66 76.46V40.82C28.66 40.26 28.52 39.86 28.24 39.62C28 39.34 27.6 39.2 27.04 39.2H22.72V37.28H56.2L56.44 52.28H54.94C54.94 51.48 54.76 50.12 54.4 48.2C54.08 46.28 53.42 44.56 52.42 43.04C50.74 40.48 48.38 39.2 45.34 39.2H35.8C35.24 39.2 34.82 39.34 34.54 39.62C34.3 39.86 34.18 40.26 34.18 40.82V56.96H38.8C40.84 56.96 42.3 55.88 43.18 53.72C44.1 51.52 44.56 49.22 44.56 46.82H46.12V69.02H44.56C44.56 66.62 44.1 64.34 43.18 62.18C42.3 59.98 40.84 58.88 38.8 58.88H34.18V76.1C34.18 76.7 34.3 77.18 34.54 77.54C34.82 77.9 35.24 78.08 35.8 78.08H41.08V80H22.72V78.08ZM69.4309 80.72C67.2309 80.72 65.2109 80.08 63.3709 78.8C61.5309 77.48 60.0709 75.72 58.9909 73.52C57.9509 71.32 57.4309 68.92 57.4309 66.32C57.4309 63.72 57.9509 61.32 58.9909 59.12C60.0709 56.92 61.5309 55.18 63.3709 53.9C65.2109 52.58 67.2309 51.92 69.4309 51.92C71.6309 51.92 73.6509 52.58 75.4909 53.9C77.3309 55.18 78.7709 56.92 79.8109 59.12C80.8909 61.32 81.4309 63.72 81.4309 66.32C81.4309 68.92 80.8909 71.32 79.8109 73.52C78.7709 75.72 77.3309 77.48 75.4909 78.8C73.6509 80.08 71.6309 80.72 69.4309 80.72ZM69.4309 79.28C71.8309 79.28 73.5509 78.16 74.5909 75.92C75.6309 73.64 76.1509 70.44 76.1509 66.32C76.1509 62.2 75.6309 59.02 74.5909 56.78C73.5509 54.5 71.8309 53.36 69.4309 53.36C67.0309 53.36 65.3109 54.5 64.2709 56.78C63.2309 59.02 62.7109 62.2 62.7109 66.32C62.7109 70.44 63.2309 73.64 64.2709 75.92C65.3109 78.16 67.0309 79.28 69.4309 79.28ZM85.9366 78.56H88.4566C88.9366 78.56 89.2766 78.46 89.4766 78.26C89.6766 78.06 89.7766 77.72 89.7766 77.24V55.4C89.7766 54.92 89.6766 54.58 89.4766 54.38C89.2766 54.18 88.9366 54.08 88.4566 54.08H85.9366V52.64H94.0966V58.64L94.3366 58.7C95.1766 56.62 96.2566 54.98 97.5766 53.78C98.9366 52.54 100.377 51.92 101.897 51.92C103.417 51.92 104.657 52.36 105.617 53.24C106.577 54.12 107.057 55.32 107.057 56.84C107.057 57.72 106.737 58.58 106.097 59.42C105.497 60.26 104.717 60.68 103.757 60.68C102.997 60.68 102.357 60.48 101.837 60.08C101.317 59.68 101.057 59.12 101.057 58.4C101.057 57.56 101.457 56.84 102.257 56.24C102.617 56 102.877 55.78 103.037 55.58C103.237 55.38 103.337 55.12 103.337 54.8C103.337 54.44 103.157 54.16 102.797 53.96C102.477 53.72 102.017 53.6 101.417 53.6C100.177 53.6 98.9766 54.2 97.8166 55.4C96.6966 56.6 95.7966 58.16 95.1166 60.08C94.4366 62 94.0966 64 94.0966 66.08V77.24C94.0966 77.72 94.1966 78.06 94.3966 78.26C94.5966 78.46 94.9366 78.56 95.4166 78.56H97.9366V80H85.9366V78.56ZM127.482 78.08H131.802C132.882 78.08 133.422 77.54 133.422 76.46V40.82C133.422 39.74 132.882 39.2 131.802 39.2H127.482V37.28H144.882V39.2H140.562C139.482 39.2 138.942 39.74 138.942 40.82V56.6H157.062V40.82C157.062 39.74 156.522 39.2 155.442 39.2H151.122V37.28H168.522V39.2H164.202C163.122 39.2 162.582 39.74 162.582 40.82V76.46C162.582 77.54 163.122 78.08 164.202 78.08H168.522V80H151.122V78.08H155.442C156.522 78.08 157.062 77.54 157.062 76.46V58.52H138.942V76.46C138.942 77.54 139.482 78.08 140.562 78.08H144.882V80H127.482V78.08ZM185.627 80.72C181.907 80.72 178.907 79.46 176.627 76.94C174.387 74.42 173.267 70.92 173.267 66.44C173.267 63.88 173.767 61.5 174.767 59.3C175.767 57.06 177.147 55.28 178.907 53.96C180.707 52.6 182.707 51.92 184.907 51.92C187.347 51.92 189.347 52.58 190.907 53.9C192.467 55.22 193.587 56.9 194.267 58.94C194.987 60.94 195.347 63 195.347 65.12C195.347 65.56 195.207 65.86 194.927 66.02C194.647 66.14 194.167 66.2 193.487 66.2H178.547C178.547 70.2 179.107 73.38 180.227 75.74C181.387 78.1 183.267 79.28 185.867 79.28C187.707 79.28 189.427 78.58 191.027 77.18C192.667 75.78 193.707 73.6 194.147 70.64H195.587C195.347 73.56 194.327 75.98 192.527 77.9C190.767 79.78 188.467 80.72 185.627 80.72ZM190.187 64.76C190.187 61.56 189.767 58.86 188.927 56.66C188.087 54.46 186.707 53.36 184.787 53.36C182.747 53.36 181.187 54.48 180.107 56.72C179.067 58.92 178.547 61.6 178.547 64.76H190.187ZM199.605 78.56H202.125C202.605 78.56 202.945 78.46 203.145 78.26C203.345 78.06 203.445 77.72 203.445 77.24V55.4C203.445 54.92 203.345 54.58 203.145 54.38C202.945 54.18 202.605 54.08 202.125 54.08H199.605V52.64H207.765V58.64L208.005 58.7C208.845 56.62 209.925 54.98 211.245 53.78C212.605 52.54 214.045 51.92 215.565 51.92C217.085 51.92 218.325 52.36 219.285 53.24C220.245 54.12 220.725 55.32 220.725 56.84C220.725 57.72 220.405 58.58 219.765 59.42C219.165 60.26 218.385 60.68 217.425 60.68C216.665 60.68 216.025 60.48 215.505 60.08C214.985 59.68 214.725 59.12 214.725 58.4C214.725 57.56 215.125 56.84 215.925 56.24C216.285 56 216.545 55.78 216.705 55.58C216.905 55.38 217.005 55.12 217.005 54.8C217.005 54.44 216.825 54.16 216.465 53.96C216.145 53.72 215.685 53.6 215.085 53.6C213.845 53.6 212.645 54.2 211.485 55.4C210.365 56.6 209.465 58.16 208.785 60.08C208.105 62 207.765 64 207.765 66.08V77.24C207.765 77.72 207.865 78.06 208.065 78.26C208.265 78.46 208.605 78.56 209.085 78.56H211.605V80H199.605V78.56Z" fill="#FFCCE2"/>
<path d="M135.815 168.08H140.135C141.215 168.08 141.755 167.54 141.755 166.46V130.82C141.755 130.26 141.615 129.86 141.335 129.62C141.095 129.34 140.695 129.2 140.135 129.2H135.815V127.28H169.295L169.535 142.28H168.035C168.035 141.48 167.855 140.12 167.495 138.2C167.175 136.28 166.515 134.56 165.515 133.04C163.835 130.48 161.475 129.2 158.435 129.2H148.895C148.335 129.2 147.915 129.34 147.635 129.62C147.395 129.86 147.275 130.26 147.275 130.82V146.96H151.895C153.935 146.96 155.395 145.88 156.275 143.72C157.195 141.52 157.655 139.22 157.655 136.82H159.215V159.02H157.655C157.655 156.62 157.195 154.34 156.275 152.18C155.395 149.98 153.935 148.88 151.895 148.88H147.275V166.1C147.275 166.7 147.395 167.18 147.635 167.54C147.915 167.9 148.335 168.08 148.895 168.08H154.175V170H135.815V168.08ZM182.526 170.72C180.326 170.72 178.306 170.08 176.466 168.8C174.626 167.48 173.166 165.72 172.086 163.52C171.046 161.32 170.526 158.92 170.526 156.32C170.526 153.72 171.046 151.32 172.086 149.12C173.166 146.92 174.626 145.18 176.466 143.9C178.306 142.58 180.326 141.92 182.526 141.92C184.726 141.92 186.746 142.58 188.586 143.9C190.426 145.18 191.866 146.92 192.906 149.12C193.986 151.32 194.526 153.72 194.526 156.32C194.526 158.92 193.986 161.32 192.906 163.52C191.866 165.72 190.426 167.48 188.586 168.8C186.746 170.08 184.726 170.72 182.526 170.72ZM182.526 169.28C184.926 169.28 186.646 168.16 187.686 165.92C188.726 163.64 189.246 160.44 189.246 156.32C189.246 152.2 188.726 149.02 187.686 146.78C186.646 144.5 184.926 143.36 182.526 143.36C180.126 143.36 178.406 144.5 177.366 146.78C176.326 149.02 175.806 152.2 175.806 156.32C175.806 160.44 176.326 163.64 177.366 165.92C178.406 168.16 180.126 169.28 182.526 169.28ZM199.031 168.56H201.551C202.031 168.56 202.371 168.46 202.571 168.26C202.771 168.06 202.871 167.72 202.871 167.24V145.4C202.871 144.92 202.771 144.58 202.571 144.38C202.371 144.18 202.031 144.08 201.551 144.08H199.031V142.64H207.191V148.64L207.431 148.7C208.271 146.62 209.351 144.98 210.671 143.78C212.031 142.54 213.471 141.92 214.991 141.92C216.511 141.92 217.751 142.36 218.711 143.24C219.671 144.12 220.151 145.32 220.151 146.84C220.151 147.72 219.831 148.58 219.191 149.42C218.591 150.26 217.811 150.68 216.851 150.68C216.091 150.68 215.451 150.48 214.931 150.08C214.411 149.68 214.151 149.12 214.151 148.4C214.151 147.56 214.551 146.84 215.351 146.24C215.711 146 215.971 145.78 216.131 145.58C216.331 145.38 216.431 145.12 216.431 144.8C216.431 144.44 216.251 144.16 215.891 143.96C215.571 143.72 215.111 143.6 214.511 143.6C213.271 143.6 212.071 144.2 210.911 145.4C209.791 146.6 208.891 148.16 208.211 150.08C207.531 152 207.191 154 207.191 156.08V167.24C207.191 167.72 207.291 168.06 207.491 168.26C207.691 168.46 208.031 168.56 208.511 168.56H211.031V170H199.031V168.56ZM240.577 168.08H244.897C245.977 168.08 246.517 167.54 246.517 166.46V130.82C246.517 129.74 245.977 129.2 244.897 129.2H240.577V127.28H257.977V129.2H253.657C252.577 129.2 252.037 129.74 252.037 130.82V146.6H270.157V130.82C270.157 129.74 269.617 129.2 268.537 129.2H264.217V127.28H281.617V129.2H277.297C276.217 129.2 275.677 129.74 275.677 130.82V166.46C275.677 167.54 276.217 168.08 277.297 168.08H281.617V170H264.217V168.08H268.537C269.617 168.08 270.157 167.54 270.157 166.46V148.52H252.037V166.46C252.037 167.54 252.577 168.08 253.657 168.08H257.977V170H240.577V168.08ZM291.402 135.2C290.522 135.2 289.782 134.9 289.182 134.3C288.582 133.7 288.282 132.96 288.282 132.08C288.282 131.16 288.582 130.42 289.182 129.86C289.782 129.26 290.522 128.96 291.402 128.96C292.322 128.96 293.062 129.26 293.622 129.86C294.222 130.42 294.522 131.16 294.522 132.08C294.522 132.96 294.222 133.7 293.622 134.3C293.062 134.9 292.322 135.2 291.402 135.2ZM285.762 168.56H288.282C288.762 168.56 289.102 168.46 289.302 168.26C289.502 168.06 289.602 167.72 289.602 167.24V145.4C289.602 144.92 289.502 144.58 289.302 144.38C289.102 144.18 288.762 144.08 288.282 144.08H285.762V142.64H293.922V167.24C293.922 167.72 294.022 168.06 294.222 168.26C294.422 168.46 294.762 168.56 295.242 168.56H297.762V170H285.762V168.56ZM301.274 168.56H303.794C304.274 168.56 304.614 168.46 304.814 168.26C305.014 168.06 305.114 167.72 305.114 167.24V145.4C305.114 144.92 305.014 144.58 304.814 144.38C304.614 144.18 304.274 144.08 303.794 144.08H301.274V142.64H309.434V147.44L309.674 147.5C310.514 145.66 311.594 144.28 312.914 143.36C314.274 142.4 315.714 141.92 317.234 141.92C319.594 141.92 321.334 142.56 322.454 143.84C323.614 145.12 324.394 146.64 324.794 148.4H325.034C325.514 146.8 326.454 145.32 327.854 143.96C329.294 142.6 330.954 141.92 332.834 141.92C335.754 141.92 337.814 142.9 339.014 144.86C340.254 146.82 340.874 149.12 340.874 151.76V167.24C340.874 167.72 340.974 168.06 341.174 168.26C341.374 168.46 341.714 168.56 342.194 168.56H344.714V170H332.714V168.56H335.234C335.714 168.56 336.054 168.46 336.254 168.26C336.454 168.06 336.554 167.72 336.554 167.24V149.66C336.554 148.06 336.174 146.66 335.414 145.46C334.654 144.22 333.554 143.6 332.114 143.6C330.914 143.6 329.774 144.08 328.694 145.04C327.654 145.96 326.794 147.24 326.114 148.88C325.474 150.52 325.154 152.36 325.154 154.4V167.24C325.154 167.72 325.254 168.06 325.454 168.26C325.654 168.46 325.994 168.56 326.474 168.56H328.994V170H316.994V168.56H319.514C319.994 168.56 320.334 168.46 320.534 168.26C320.734 168.06 320.834 167.72 320.834 167.24V149.66C320.834 148.06 320.454 146.66 319.694 145.46C318.934 144.22 317.834 143.6 316.394 143.6C315.194 143.6 314.054 144.08 312.974 145.04C311.934 145.96 311.074 147.24 310.394 148.88C309.754 150.52 309.434 152.36 309.434 154.4V167.24C309.434 167.72 309.534 168.06 309.734 168.26C309.934 168.46 310.274 168.56 310.754 168.56H313.274V170H301.274V168.56ZM248.91 258.08H253.23C254.31 258.08 254.85 257.54 254.85 256.46V220.82C254.85 220.26 254.71 219.86 254.43 219.62C254.19 219.34 253.79 219.2 253.23 219.2H248.91V217.28H282.39L282.63 232.28H281.13C281.13 231.48 280.95 230.12 280.59 228.2C280.27 226.28 279.61 224.56 278.61 223.04C276.93 220.48 274.57 219.2 271.53 219.2H261.99C261.43 219.2 261.01 219.34 260.73 219.62C260.49 219.86 260.37 220.26 260.37 220.82V236.96H264.99C267.03 236.96 268.49 235.88 269.37 233.72C270.29 231.52 270.75 229.22 270.75 226.82H272.31V249.02H270.75C270.75 246.62 270.29 244.34 269.37 242.18C268.49 239.98 267.03 238.88 264.99 238.88H260.37V256.1C260.37 256.7 260.49 257.18 260.73 257.54C261.01 257.9 261.43 258.08 261.99 258.08H267.27V260H248.91V258.08ZM295.621 260.72C293.421 260.72 291.401 260.08 289.561 258.8C287.721 257.48 286.261 255.72 285.181 253.52C284.141 251.32 283.621 248.92 283.621 246.32C283.621 243.72 284.141 241.32 285.181 239.12C286.261 236.92 287.721 235.18 289.561 233.9C291.401 232.58 293.421 231.92 295.621 231.92C297.821 231.92 299.841 232.58 301.681 233.9C303.521 235.18 304.961 236.92 306.001 239.12C307.081 241.32 307.621 243.72 307.621 246.32C307.621 248.92 307.081 251.32 306.001 253.52C304.961 255.72 303.521 257.48 301.681 258.8C299.841 260.08 297.821 260.72 295.621 260.72ZM295.621 259.28C298.021 259.28 299.741 258.16 300.781 255.92C301.821 253.64 302.341 250.44 302.341 246.32C302.341 242.2 301.821 239.02 300.781 236.78C299.741 234.5 298.021 233.36 295.621 233.36C293.221 233.36 291.501 234.5 290.461 236.78C289.421 239.02 288.901 242.2 288.901 246.32C288.901 250.44 289.421 253.64 290.461 255.92C291.501 258.16 293.221 259.28 295.621 259.28ZM312.126 258.56H314.646C315.126 258.56 315.466 258.46 315.666 258.26C315.866 258.06 315.966 257.72 315.966 257.24V235.4C315.966 234.92 315.866 234.58 315.666 234.38C315.466 234.18 315.126 234.08 314.646 234.08H312.126V232.64H320.286V238.64L320.526 238.7C321.366 236.62 322.446 234.98 323.766 233.78C325.126 232.54 326.566 231.92 328.086 231.92C329.606 231.92 330.846 232.36 331.806 233.24C332.766 234.12 333.246 235.32 333.246 236.84C333.246 237.72 332.926 238.58 332.286 239.42C331.686 240.26 330.906 240.68 329.946 240.68C329.186 240.68 328.546 240.48 328.026 240.08C327.506 239.68 327.246 239.12 327.246 238.4C327.246 237.56 327.646 236.84 328.446 236.24C328.806 236 329.066 235.78 329.226 235.58C329.426 235.38 329.526 235.12 329.526 234.8C329.526 234.44 329.346 234.16 328.986 233.96C328.666 233.72 328.206 233.6 327.606 233.6C326.366 233.6 325.166 234.2 324.006 235.4C322.886 236.6 321.986 238.16 321.306 240.08C320.626 242 320.286 244 320.286 246.08V257.24C320.286 257.72 320.386 258.06 320.586 258.26C320.786 258.46 321.126 258.56 321.606 258.56H324.126V260H312.126V258.56ZM362.312 260.72C360.512 260.72 359.012 260.08 357.812 258.8C356.652 257.52 356.072 255.78 356.072 253.58V234.32H351.632V232.64H352.952C354.752 232.64 356.152 231.68 357.152 229.76C358.192 227.8 358.712 225.64 358.712 223.28V221.12H360.392V232.64H367.832V234.32H360.392V253.88C360.392 255.08 360.632 256.08 361.112 256.88C361.592 257.68 362.412 258.08 363.572 258.08C366.412 258.08 367.832 255.68 367.832 250.88H368.912C368.912 253.56 368.512 255.88 367.712 257.84C366.952 259.76 365.152 260.72 362.312 260.72ZM371.949 258.56H375.309C375.789 258.56 376.129 258.46 376.329 258.26C376.529 258.06 376.629 257.72 376.629 257.24V220.04C376.629 219.56 376.529 219.22 376.329 219.02C376.129 218.82 375.789 218.72 375.309 218.72H371.949V217.28H380.949V237.56L381.189 237.62C382.109 235.7 383.249 234.28 384.609 233.36C385.969 232.4 387.469 231.92 389.109 231.92C392.029 231.92 394.089 232.82 395.289 234.62C396.529 236.42 397.149 238.58 397.149 241.1V257.24C397.149 257.72 397.249 258.06 397.449 258.26C397.649 258.46 397.989 258.56 398.469 258.56H400.989V260H388.989V258.56H391.509C391.989 258.56 392.329 258.46 392.529 258.26C392.729 258.06 392.829 257.72 392.829 257.24V239.96C392.829 238.2 392.469 236.7 391.749 235.46C391.069 234.22 389.889 233.6 388.209 233.6C386.809 233.6 385.549 234.1 384.429 235.1C383.349 236.06 382.489 237.4 381.849 239.12C381.249 240.8 380.949 242.68 380.949 244.76V257.24C380.949 257.72 381.049 258.06 381.249 258.26C381.449 258.46 381.789 258.56 382.269 258.56H384.789V260H371.949V258.56ZM417.485 260.72C413.765 260.72 410.765 259.46 408.485 256.94C406.245 254.42 405.125 250.92 405.125 246.44C405.125 243.88 405.625 241.5 406.625 239.3C407.625 237.06 409.005 235.28 410.765 233.96C412.565 232.6 414.565 231.92 416.765 231.92C419.205 231.92 421.205 232.58 422.765 233.9C424.325 235.22 425.445 236.9 426.125 238.94C426.845 240.94 427.205 243 427.205 245.12C427.205 245.56 427.065 245.86 426.785 246.02C426.505 246.14 426.025 246.2 425.345 246.2H410.405C410.405 250.2 410.965 253.38 412.085 255.74C413.245 258.1 415.125 259.28 417.725 259.28C419.565 259.28 421.285 258.58 422.885 257.18C424.525 255.78 425.565 253.6 426.005 250.64H427.445C427.205 253.56 426.185 255.98 424.385 257.9C422.625 259.78 420.325 260.72 417.485 260.72ZM422.045 244.76C422.045 241.56 421.625 238.86 420.785 236.66C419.945 234.46 418.565 233.36 416.645 233.36C414.605 233.36 413.045 234.48 411.965 236.72C410.925 238.92 410.405 241.6 410.405 244.76H422.045ZM431.463 258.56H433.983C434.463 258.56 434.803 258.46 435.003 258.26C435.203 258.06 435.303 257.72 435.303 257.24V235.4C435.303 234.92 435.203 234.58 435.003 234.38C434.803 234.18 434.463 234.08 433.983 234.08H431.463V232.64H439.623V237.44L439.863 237.5C440.703 235.66 441.783 234.28 443.103 233.36C444.463 232.4 445.903 231.92 447.423 231.92C449.783 231.92 451.523 232.56 452.643 233.84C453.803 235.12 454.583 236.64 454.983 238.4H455.223C455.703 236.8 456.643 235.32 458.043 233.96C459.483 232.6 461.143 231.92 463.023 231.92C465.943 231.92 468.003 232.9 469.203 234.86C470.443 236.82 471.063 239.12 471.063 241.76V257.24C471.063 257.72 471.163 258.06 471.363 258.26C471.563 258.46 471.903 258.56 472.383 258.56H474.903V260H462.903V258.56H465.423C465.903 258.56 466.243 258.46 466.443 258.26C466.643 258.06 466.743 257.72 466.743 257.24V239.66C466.743 238.06 466.363 236.66 465.603 235.46C464.843 234.22 463.743 233.6 462.303 233.6C461.103 233.6 459.963 234.08 458.883 235.04C457.843 235.96 456.983 237.24 456.303 238.88C455.663 240.52 455.343 242.36 455.343 244.4V257.24C455.343 257.72 455.443 258.06 455.643 258.26C455.843 258.46 456.183 258.56 456.663 258.56H459.183V260H447.183V258.56H449.703C450.183 258.56 450.523 258.46 450.723 258.26C450.923 258.06 451.023 257.72 451.023 257.24V239.66C451.023 238.06 450.643 236.66 449.883 235.46C449.123 234.22 448.023 233.6 446.583 233.6C445.383 233.6 444.243 234.08 443.163 235.04C442.123 235.96 441.263 237.24 440.583 238.88C439.943 240.52 439.623 242.36 439.623 244.4V257.24C439.623 257.72 439.723 258.06 439.923 258.26C440.123 258.46 440.463 258.56 440.943 258.56H443.463V260H431.463V258.56Z" fill="black"/>
<path d="M223.15 105.9C221.017 105.9 219.25 105.267 217.85 104C216.483 102.733 215.8 100.917 215.8 98.55C215.8 96.0833 216.517 93.8667 217.95 91.9C219.417 89.9 221.083 88.2833 222.95 87.05C224.85 85.8167 226.55 84.95 228.05 84.45L230.95 83.4C231.15 81.2 231.667 79.0667 232.5 77C233.367 74.9333 234.5 73.2333 235.9 71.9C237.3 70.5667 238.9 69.9 240.7 69.9C242.167 69.9 243.2 70.3833 243.8 71.35C244.433 72.2833 244.75 73.3 244.75 74.4C244.75 76.5333 243.983 78.2167 242.45 79.45C240.95 80.6833 239.267 81.6167 237.4 82.25L234.45 83.3V96.55L243.2 84.95C243.767 84.1833 244.4 83.5167 245.1 82.95C245.833 82.3833 246.667 82.1 247.6 82.1C248.633 82.1 249.417 82.4333 249.95 83.1C250.517 83.7333 250.8 84.5333 250.8 85.5C250.8 86.1 250.617 86.7 250.25 87.3C249.883 87.8667 249.3 88.15 248.5 88.15C248.1 88.15 247.733 88.05 247.4 87.85C247.067 87.6167 246.9 87.2167 246.9 86.65C246.9 86.1167 247.117 85.6333 247.55 85.2C247.917 84.8333 248.1 84.5 248.1 84.2C248.1 84 248 83.8167 247.8 83.65C247.633 83.4833 247.4 83.4 247.1 83.4C246.633 83.4 246.217 83.5667 245.85 83.9C245.483 84.2333 244.967 84.8 244.3 85.6L234.5 98C234.5 99.9667 234.65 101.533 234.95 102.7C235.25 103.833 236 104.4 237.2 104.4C238.167 104.4 239.25 103.817 240.45 102.65C241.683 101.45 242.817 100.1 243.85 98.6C244.917 97.1 245.7 95.8667 246.2 94.9L247.1 95.4C245.9 97.8 244.383 100.15 242.55 102.45C240.75 104.75 238.8 105.9 236.7 105.9C235.033 105.9 233.8 105.5 233 104.7C232.233 103.867 231.683 102.767 231.35 101.4C230.083 102.733 228.817 103.817 227.55 104.65C226.283 105.483 224.817 105.9 223.15 105.9ZM236.9 81.3C238.467 80.8 239.867 80.0167 241.1 78.95C242.333 77.85 242.95 76.35 242.95 74.45C242.95 73.75 242.767 73.0667 242.4 72.4C242.067 71.7333 241.467 71.4 240.6 71.4C239.733 71.4 238.817 71.7667 237.85 72.5C236.917 73.2 236.117 74.3667 235.45 76C234.783 77.6 234.45 79.6667 234.45 82.2L236.9 81.3ZM224.25 104.4C225.583 104.4 226.767 104.033 227.8 103.3C228.833 102.533 229.917 101.517 231.05 100.25C230.917 99.85 230.85 99.25 230.85 98.45V84.7L229.05 85.35C226.383 86.3167 224.3 88.0167 222.8 90.45C221.333 92.85 220.6 95.6333 220.6 98.8C220.6 100.633 220.917 102.033 221.55 103C222.183 103.933 223.083 104.4 224.25 104.4Z" fill="#FFCCE1"/>
</g>
<defs>
<clipPath id="clip0_225_355">
<rect width="503" height="315" fill="white"/>
</clipPath>
</defs>
</svg>
